<svg width="21" height="28" viewBox="0 0 21 28" fill="none" xmlns="http://www.w3.org/2000/svg">
	<path fill-rule="evenodd" clip-rule="evenodd"
		d="M19.323 8.73629L17.9625 7.37585V3.18692C17.9625 2.69456 17.5589 2.29099 17.0626 2.29099H15.6904C15.1981 2.29099 14.7945 2.69456 14.7945 3.18692V4.20783L10.9408 0.354133C10.4727 -0.118044 9.70587 -0.118044 9.23773 0.354133L0.85557 8.73629C0.383392 9.20443 0 10.1326 0 10.7945V12.2716C4.42717 15.5607 9.90765 17.5059 15.8442 17.5059C17.3212 17.5059 18.7701 17.3848 20.1785 17.1548V10.7945C20.1785 10.1326 19.7951 9.20443 19.323 8.73629ZM11.9249 22.8128V27.5466C11.9249 27.9502 12.4132 28.152 12.6998 27.8654L17.7524 22.8128H18.9718C19.6337 22.8128 20.1785 22.268 20.1785 21.6061V18.5107C18.7701 18.7408 17.3212 18.8618 15.8442 18.8618C9.90765 18.8618 4.42717 16.9166 0 13.6316V21.6061C0 22.268 0.544821 22.8128 1.20668 22.8128H11.9249Z"
		fill="#574EFA" />
</svg>